<?xml version="1.0" standalone="no"?>
<!DOCTYPE svg PUBLIC "-//W3C//DTD SVG 20010904//EN"
 "http://www.w3.org/TR/2001/REC-SVG-20010904/DTD/svg10.dtd">
<svg version="1.0" xmlns="http://www.w3.org/2000/svg"
 width="1226.000000pt" height="1054.000000pt" viewBox="0 0 1226.000000 1054.000000"
 preserveAspectRatio="xMidYMid meet">

<g transform="translate(0.000000,1054.000000) scale(0.100000,-0.100000)"
fill="#000000" stroke="none">
<path d="M5020 10534 c-25 -2 -110 -8 -190 -14 -629 -46 -1303 -232 -1885
-520 -1408 -697 -2425 -1963 -2795 -3480 -102 -417 -145 -788 -145 -1245 0
-382 29 -685 96 -1025 275 -1386 1101 -2606 2289 -3382 1501 -980 3402 -1127
5040 -390 886 399 1660 1052 2202 1858 673 1003 975 2167 878 3389 -78 984
-466 1979 -1078 2767 -410 527 -901 963 -1467 1303 -226 136 -636 335 -830
403 -16 6 -68 24 -115 42 -367 134 -861 241 -1305 280 -122 11 -613 21 -695
14z m750 -328 c446 -48 876 -150 1265 -301 201 -78 219 -86 380 -164 527 -255
969 -573 1386 -998 325 -331 558 -640 784 -1038 70 -123 207 -400 243 -490 11
-27 34 -86 52 -130 54 -133 146 -421 185 -575 117 -465 163 -874 152 -1345
-10 -424 -55 -749 -158 -1150 -29 -115 -127 -420 -164 -515 -208 -526 -467
-966 -831 -1408 -112 -137 -477 -502 -616 -616 -800 -660 -1702 -1036 -2733
-1138 -170 -17 -729 -17 -900 0 -1029 101 -1946 484 -2735 1140 -147 123 -500
476 -614 614 -650 788 -1023 1672 -1133 2683 -24 225 -24 775 0 1000 101 922
430 1762 972 2480 270 357 625 713 976 977 575 432 1232 734 1934 887 213 47
414 75 755 105 105 9 663 -3 800 -18z"/>
<path d="M4875 10009 c-214 -17 -538 -70 -760 -126 -1067 -266 -2008 -896
-2671 -1788 -525 -707 -849 -1576 -914 -2450 -13 -182 -13 -561 1 -739 66
-882 387 -1743 913 -2451 203 -273 518 -610 751 -804 738 -615 1552 -969 2510
-1093 162 -21 219 -23 565 -23 340 1 405 3 555 23 519 68 944 186 1391 387
1580 710 2654 2241 2784 3965 13 173 13 556 0 730 -64 846 -354 1657 -845
2360 -276 394 -660 790 -1050 1082 -717 536 -1585 862 -2475 928 -157 12 -596
11 -755 -1z m960 -158 c555 -76 1004 -211 1476 -445 938 -465 1699 -1245 2137
-2192 472 -1021 555 -2172 235 -3254 -211 -714 -589 -1358 -1113 -1894 -382
-391 -764 -671 -1250 -915 -485 -243 -972 -387 -1550 -458 -208 -26 -802 -26
-1010 0 -1102 135 -2047 599 -2800 1373 -701 720 -1130 1610 -1267 2627 -26
190 -28 224 -28 582 0 357 2 392 27 580 114 836 409 1556 909 2215 395 521
950 991 1521 1287 560 292 1104 450 1783 517 22 2 204 3 405 1 311 -2 389 -5
525 -24z"/>
<path d="M5482 9388 c-12 -57 -22 -111 -22 -121 0 -28 22 -15 33 19 25 76 76
114 155 114 43 0 148 -14 178 -25 8 -2 6 -37 -7 -122 -10 -65 -25 -161 -34
-213 -8 -52 -28 -183 -45 -290 -32 -207 -50 -274 -80 -290 -10 -6 -41 -10 -69
-10 -52 0 -70 -16 -28 -24 12 -3 99 -16 192 -31 94 -14 182 -27 198 -30 18 -3
27 0 27 9 0 8 -16 16 -37 19 -21 4 -48 13 -60 22 -43 30 -42 32 32 500 14 88
35 221 46 295 11 74 22 136 23 137 8 8 194 -29 224 -45 53 -27 82 -74 82 -133
0 -35 4 -49 14 -49 15 0 22 28 31 135 4 39 9 77 11 86 3 13 -25 20 -168 43
-95 15 -240 39 -323 52 -82 14 -189 31 -236 39 -48 8 -93 15 -101 15 -10 0
-21 -30 -36 -102z"/>
<path d="M4233 9380 c-184 -54 -318 -204 -359 -400 -25 -120 2 -278 69 -405
82 -154 265 -265 436 -265 232 0 423 145 493 373 17 58 20 86 15 175 -10 218
-106 382 -280 481 -111 62 -250 78 -374 41z m240 -73 c128 -75 228 -272 257
-507 10 -80 9 -107 -4 -167 -34 -163 -152 -263 -309 -263 -122 0 -232 87 -306
244 -61 128 -85 231 -85 366 -1 105 2 120 27 175 31 67 64 106 118 141 55 34
96 44 180 40 61 -2 85 -8 122 -29z"/>
<path d="M3066 8880 c-192 -115 -353 -213 -358 -218 -4 -4 12 -46 37 -93 60
-113 60 -112 75 -117 10 -4 11 2 6 19 -4 13 -10 49 -13 79 -4 46 -1 60 19 90
23 34 185 143 200 134 4 -2 104 -167 224 -366 143 -239 218 -375 221 -399 6
-44 -8 -72 -47 -96 -17 -9 -30 -23 -30 -30 0 -7 2 -13 4 -13 13 0 376 223 376
231 0 13 -21 11 -50 -6 -41 -24 -88 -19 -116 12 -25 27 -454 737 -454 751 1
16 174 105 215 109 49 6 95 -14 138 -60 17 -19 31 -27 37 -21 10 10 -113 204
-128 204 -4 -1 -164 -95 -356 -210z"/>
<path d="M6840 9061 c-152 -41 -275 -144 -348 -292 -119 -240 -82 -480 98
-642 87 -79 209 -126 322 -127 255 -1 475 185 544 460 54 214 -58 460 -255
560 -119 59 -241 74 -361 41z m307 -75 c209 -98 243 -312 96 -599 -79 -153
-174 -256 -271 -294 -30 -12 -73 -18 -122 -18 -63 0 -84 5 -134 30 -108 55
-156 138 -156 274 0 130 47 262 146 412 123 186 296 262 441 195z"/>
<path d="M8017 8494 c-3 -4 5 -23 18 -43 32 -46 32 -91 0 -129 -28 -34 -552
-476 -620 -524 -51 -36 -77 -34 -130 13 -35 31 -55 34 -38 6 22 -38 210 -256
221 -256 18 -1 15 11 -13 49 -44 60 -36 89 48 164 128 116 522 444 525 437 1
-4 -27 -70 -63 -147 -37 -76 -75 -157 -85 -179 -10 -22 -71 -150 -134 -284
-64 -134 -113 -247 -110 -252 6 -10 20 -7 139 26 44 13 125 35 180 50 55 15
138 37 185 50 47 13 137 38 200 55 63 18 137 38 163 47 27 8 50 13 53 10 3 -2
-93 -88 -213 -189 -401 -339 -384 -326 -436 -304 -19 7 -44 26 -56 42 -14 18
-25 24 -31 18 -7 -7 37 -67 125 -171 74 -89 140 -165 146 -168 22 -14 22 6 0
36 -12 16 -25 45 -28 63 -4 29 0 40 33 76 44 48 579 496 627 524 41 24 78 16
120 -25 18 -18 33 -27 39 -21 5 5 -29 53 -83 118 -50 60 -92 110 -93 111 -1 2
-172 -45 -416 -113 -353 -98 -445 -123 -448 -120 -1 2 24 59 56 127 33 68 89
189 127 269 37 80 90 192 117 250 28 58 56 119 64 137 l14 31 -90 109 c-92
109 -101 118 -113 107z"/>
<path d="M2317 8311 c-105 -116 -131 -151 -111 -151 4 0 22 13 40 30 50 43 77
47 122 17 34 -23 289 -248 441 -390 l65 -60 -140 7 c-76 4 -303 16 -504 27
l-365 20 -35 -39 c-19 -22 -61 -69 -93 -105 -33 -38 -56 -71 -52 -77 5 -8 16
-3 34 14 32 31 100 56 153 56 37 0 51 -10 216 -157 299 -268 423 -385 434
-409 14 -29 4 -65 -27 -102 -22 -26 -24 -42 -5 -42 14 0 240 261 234 271 -4 7
-19 -1 -38 -20 -48 -46 -91 -50 -141 -13 -29 21 -473 417 -515 459 -6 6 251
-3 665 -22 165 -8 327 -16 359 -17 38 -2 61 1 63 9 2 6 -155 155 -350 331
-195 176 -357 328 -361 337 -13 34 -5 74 19 103 25 30 32 52 17 52 -5 0 -61
-58 -125 -129z"/>
<path d="M5160 8204 c-468 -27 -837 -121 -1220 -313 -847 -424 -1444 -1245
-1580 -2175 -32 -217 -27 -203 -100 -264 -36 -30 -105 -88 -153 -129 -49 -41
-91 -72 -94 -69 -4 3 11 50 33 104 36 90 39 104 39 197 0 95 -2 103 -34 163
-76 140 -229 196 -356 129 -80 -42 -109 -74 -230 -252 -92 -136 -150 -202
-196 -225 -48 -25 -70 -25 -119 0 -78 40 -111 123 -85 221 31 123 124 202 253
215 70 8 84 28 25 37 -91 14 -313 30 -320 23 -4 -4 7 -18 25 -32 36 -29 38
-37 16 -79 -73 -138 -85 -269 -33 -373 63 -127 191 -180 325 -135 60 20 145
103 223 218 153 226 197 267 285 267 96 0 158 -69 164 -181 9 -168 -100 -295
-270 -316 -38 -4 -58 -11 -58 -20 0 -9 24 -15 88 -20 147 -11 147 -11 56 -79
-44 -33 -81 -61 -83 -62 -4 -4 20 -44 247 -414 128 -207 242 -381 500 -760 39
-58 164 -226 277 -375 113 -148 256 -336 317 -417 l112 -148 63 36 c35 19 62
30 61 23 -5 -19 146 -144 291 -240 75 -50 201 -123 281 -164 133 -67 195 -93
397 -169 l71 -27 47 -83 c66 -117 172 -246 250 -301 36 -26 85 -73 110 -105
24 -32 59 -70 77 -85 30 -25 37 -27 95 -22 77 8 164 42 274 107 46 28 87 50
91 50 4 0 87 38 185 84 368 172 661 268 878 286 144 12 202 25 290 66 42 19
84 30 145 35 114 10 155 20 290 74 222 89 341 164 459 291 135 143 187 234
256 439 63 187 74 257 85 520 l10 240 42 85 c173 358 232 649 232 1150 1 292
-12 429 -64 666 -130 601 -458 1162 -913 1563 -399 351 -840 574 -1358 685
-184 40 -532 69 -699 60z m421 -100 c464 -50 891 -208 1289 -475 164 -111 267
-195 416 -344 445 -444 715 -984 806 -1610 29 -199 31 -515 5 -685 -21 -136
-68 -340 -78 -340 -3 0 -30 41 -58 90 -52 90 -52 90 -42 143 40 201 48 576 17
796 -139 1009 -818 1831 -1786 2163 -548 187 -1169 188 -1724 3 -580 -194
-1062 -566 -1398 -1080 -172 -262 -307 -586 -366 -873 l-17 -87 -89 -83 c-48
-46 -90 -82 -92 -79 -7 7 44 274 76 394 101 376 306 770 560 1071 468 559
1125 914 1838 996 166 19 470 19 643 0z m172 -589 c221 -57 361 -170 392 -315
4 -19 22 -82 40 -140 37 -119 50 -189 41 -224 -6 -24 -7 -24 -52 -10 -27 8
-63 11 -89 7 -55 -7 -92 6 -177 64 -73 50 -89 49 -91 -1 -2 -29 -26 -44 -39
-24 -4 7 -8 25 -8 39 0 15 -9 37 -20 50 -17 21 -21 22 -30 9 -5 -8 -10 -36
-10 -61 0 -63 -23 -106 -61 -114 -16 -4 -35 -2 -42 3 -7 6 -28 12 -47 14 -29
2 -38 10 -56 43 -24 46 -41 52 -84 30 -18 -9 -33 -15 -35 -13 -2 2 1 37 5 78
5 41 9 119 10 173 0 95 0 97 -23 97 -16 0 -28 -9 -35 -25 -6 -14 -16 -25 -21
-25 -6 0 -33 20 -61 45 -28 25 -58 45 -68 45 -10 0 -71 -11 -137 -25 -66 -14
-126 -25 -132 -25 -27 0 -10 26 70 104 67 67 100 90 177 128 84 41 195 78 270
91 81 14 222 6 313 -18z m-613 -394 c0 -21 -25 -51 -41 -51 -14 0 0 42 19 58
21 16 22 15 22 -7z m156 -152 c-7 -46 -32 -99 -45 -99 -15 0 -34 69 -27 96 6
23 34 42 65 43 10 1 12 -9 7 -40z m1669 19 c3 -3 22 -50 43 -106 l38 -100 102
-79 c56 -43 102 -85 102 -93 0 -26 -28 -58 -76 -86 -24 -14 -53 -37 -64 -51
-21 -27 -27 -68 -10 -78 6 -3 10 -11 10 -16 0 -5 -20 2 -43 16 -24 14 -55 25
-68 25 -28 -1 -123 -50 -429 -225 -521 -297 -907 -469 -1132 -505 -72 -12 -78
-15 -78 -37 0 -35 33 -43 136 -33 177 17 307 69 640 256 247 138 325 178 416
210 86 31 234 69 354 89 118 21 117 20 132 54 9 19 30 38 60 52 26 13 77 54
115 93 l68 70 64 -64 c36 -36 65 -68 65 -72 0 -4 -26 -8 -57 -8 -80 0 -180
-18 -230 -40 -47 -20 -56 -40 -20 -40 33 0 320 -50 337 -59 8 -5 19 -22 23
-38 6 -19 21 -36 41 -45 62 -30 139 -113 222 -240 46 -70 89 -130 94 -133 6
-3 10 -43 10 -89 0 -74 3 -87 30 -129 34 -54 37 -69 14 -88 -8 -7 -25 -31 -37
-53 -28 -55 -27 -126 7 -290 15 -70 25 -133 23 -139 -2 -6 -21 21 -42 59 -120
216 -249 364 -318 364 -25 0 -27 -3 -27 -46 0 -25 7 -61 16 -80 19 -39 82 -94
131 -113 25 -10 35 -23 48 -61 19 -57 63 -127 169 -265 79 -103 122 -178 112
-194 -3 -5 -35 7 -71 26 l-66 35 -70 -13 c-79 -14 -79 -14 -118 58 l-26 47
-76 1 c-73 1 -81 4 -207 68 -72 37 -150 70 -173 73 -80 13 -303 -28 -447 -82
-147 -55 -193 -60 -303 -34 -66 15 -107 19 -148 15 -72 -8 -240 -41 -309 -61
-188 -53 -446 -70 -547 -36 -39 13 -54 25 -70 54 -13 25 -48 56 -105 95 -181
122 -167 105 -226 254 -30 73 -54 137 -54 141 0 25 35 -2 93 -72 54 -64 74
-80 102 -86 20 -3 38 -5 40 -3 2 2 -33 89 -77 192 -44 104 -78 190 -76 192 2
3 20 0 40 -6 47 -12 79 -51 130 -156 51 -105 86 -137 144 -130 40 4 134 58
134 77 0 12 -82 60 -103 60 -28 0 -86 59 -97 98 -18 65 -28 62 184 62 184 0
197 1 233 23 33 19 52 22 138 22 l100 0 3 35 c5 51 23 60 124 60 99 0 125 9
198 69 111 91 190 127 325 147 115 18 225 17 400 -1 116 -12 309 -52 319 -66
1 -2 10 -16 19 -31 19 -30 81 -65 164 -92 29 -10 55 -22 58 -27 4 -5 24 -9 45
-9 l39 0 26 -84 c26 -86 64 -146 93 -146 25 0 102 41 102 54 0 7 -9 21 -21 32
-43 38 -59 74 -89 190 -50 198 -91 276 -165 320 -60 35 -107 31 -261 -21 -141
-48 -201 -55 -258 -31 -42 18 -53 34 -32 49 14 10 15 18 6 44 -19 53 -90 70
-201 49 -41 -8 -85 -13 -96 -10 -13 4 -40 -7 -75 -30 -383 -244 -894 -416
-1288 -433 -128 -5 -136 -4 -154 15 -12 14 -17 30 -14 47 4 20 1 26 -18 31
-16 4 -24 13 -24 28 0 16 10 24 47 36 32 10 52 23 60 40 11 23 10 25 -10 28
-71 10 -97 43 -97 128 0 37 -4 45 -27 56 -40 19 -43 55 -6 63 50 12 54 15 51
37 -3 22 -8 23 -83 23 l-80 0 -3 29 c-4 33 14 49 39 35 10 -5 22 -9 28 -9 18
0 12 52 -11 100 l-22 45 -4 -32 c-2 -25 -10 -34 -34 -42 -17 -6 -47 -23 -65
-37 -19 -14 -36 -24 -38 -22 -2 2 -7 71 -11 153 l-7 150 23 -20 c12 -11 36
-45 54 -75 42 -71 63 -76 72 -18 6 32 17 52 46 78 46 42 49 76 12 111 -23 21
-37 25 -127 29 l-102 5 3 28 c2 16 -6 70 -19 121 -27 115 -23 141 29 155 92
26 179 7 276 -61 68 -48 116 -67 168 -68 54 0 67 -8 90 -54 24 -48 36 -57 63
-50 13 3 32 -5 54 -25 19 -17 50 -33 70 -37 20 -3 41 -7 47 -9 6 -2 19 -43 28
-91 19 -106 36 -136 71 -129 14 3 36 7 50 10 36 8 32 -12 -11 -56 -32 -33 -34
-39 -22 -58 16 -26 24 -26 65 -1 32 19 69 80 93 153 9 28 21 43 47 55 33 15
34 19 28 52 -18 99 -18 118 4 153 11 19 21 44 21 55 0 48 7 52 100 52 102 0
107 -4 85 -77 -8 -27 -15 -60 -15 -75 0 -35 -14 -43 -80 -43 l-55 0 1 -49 c1
-66 25 -86 104 -86 69 0 106 -25 138 -93 42 -89 40 -93 -82 -174 -270 -179
-535 -299 -801 -363 -49 -12 -96 -28 -104 -35 -23 -22 4 -45 50 -45 41 0 201
33 241 49 13 6 55 22 93 37 136 51 302 129 465 219 91 50 214 118 273 150 118
64 171 114 247 227 82 125 169 330 185 441 6 42 5 47 -24 73 -17 15 -31 31
-31 36 0 18 66 38 113 35 26 -2 50 -6 52 -9z m-1161 -242 c29 -38 30 -192 2
-248 -27 -55 -40 -48 -32 15 20 155 20 150 -9 185 -24 29 -26 36 -16 58 13 30
27 28 55 -10z m906 -1 c13 -35 -6 -75 -37 -75 l-24 0 23 31 c22 29 22 31 5 43
-23 17 -22 26 3 26 13 0 24 -10 30 -25z m-191 -53 c-70 -61 -134 -112 -141
-112 -30 0 32 78 99 125 17 12 63 24 72 19 2 -2 -12 -16 -30 -32z m101 -126
c0 -3 -30 -21 -66 -40 -58 -30 -64 -32 -44 -11 31 33 110 70 110 51z m-226
-157 c4 -20 1 -29 -11 -33 -28 -11 -45 38 -21 62 14 14 23 6 32 -29z m-2985
-363 c43 -23 93 -84 151 -187 29 -52 66 -113 83 -137 28 -39 31 -51 42 -177
l11 -136 -66 -48 c-70 -51 -183 -151 -177 -157 10 -10 184 50 198 68 26 33 50
19 70 -42 16 -50 17 -59 3 -99 -17 -51 -13 -109 16 -237 36 -158 105 -267 176
-280 25 -5 35 -13 43 -36 22 -63 16 -84 -63 -201 -57 -84 -60 -122 -16 -167
17 -17 30 -40 30 -51 0 -31 18 -57 50 -74 17 -9 30 -19 30 -23 0 -4 -20 -18
-45 -31 -74 -39 -122 -88 -157 -159 -31 -62 -33 -73 -33 -167 1 -56 7 -117 14
-139 12 -35 12 -40 -3 -48 -34 -19 -90 -74 -178 -176 -104 -118 -181 -184
-212 -180 -37 5 -224 290 -571 868 -131 217 -260 427 -287 467 -75 108 -156
192 -300 310 l-130 106 169 87 c362 186 570 343 628 474 l21 48 111 -153 c286
-398 529 -788 659 -1059 42 -85 81 -166 87 -178 12 -24 102 -70 113 -59 11 10
-94 196 -189 337 -163 241 -203 303 -287 445 -218 369 -314 528 -374 617 -36
54 -62 100 -58 102 4 3 57 26 117 51 60 26 127 59 150 75 78 54 120 144 132
288 3 39 8 72 10 72 2 0 16 -6 32 -14z m-121 -8 c-4 -12 -87 -73 -148 -108
l-35 -20 35 31 c102 91 158 127 148 97z m-27 -156 c-47 -67 -197 -172 -266
-186 l-30 -6 39 32 c51 43 259 187 269 188 5 0 -1 -13 -12 -28z m1749 -53 l55
-12 -110 -14 c-122 -16 -276 -55 -405 -103 -77 -29 -97 -33 -210 -35 -99 -1
-138 -6 -185 -23 -56 -20 -58 -20 -35 -3 91 71 261 148 395 179 50 12 99 23
110 26 38 9 330 -2 385 -15z m-1035 -229 c34 -8 22 -15 -38 -24 -23 -3 -54
-18 -78 -38 -21 -18 -57 -48 -78 -66 -39 -33 -58 -30 -46 7 8 25 41 54 109 95
60 36 76 40 131 26z m220 -130 c24 -17 51 -40 60 -52 21 -31 19 -137 -6 -273
-10 -60 -25 -152 -31 -204 l-12 -94 49 -43 c28 -24 61 -49 74 -56 20 -11 25
-10 42 11 10 13 19 38 19 56 0 18 3 47 6 64 6 27 9 29 22 19 8 -7 26 -35 38
-63 20 -42 24 -66 23 -145 -1 -132 -11 -195 -37 -223 -21 -22 -21 -27 -12
-157 5 -74 9 -176 10 -225 0 -95 11 -124 73 -193 18 -20 19 -24 6 -37 -13 -13
-23 -10 -84 20 -136 69 -179 139 -178 295 0 105 22 188 94 354 41 96 43 140 7
152 -26 8 -30 3 -68 -86 -18 -41 -36 -79 -41 -84 -8 -9 -48 17 -100 66 -21 19
-27 38 -33 89 -9 78 -20 97 -92 150 -68 50 -97 107 -117 229 -7 47 -21 100
-31 118 -18 35 -91 113 -140 150 -22 17 -27 27 -22 46 8 34 23 36 98 11 56
-18 80 -34 148 -98 94 -89 133 -104 95 -37 -20 36 -19 40 13 34 23 -5 32 -1
45 20 13 20 26 26 52 26 37 0 47 16 18 27 -39 14 -53 35 -53 84 0 46 7 79 17
79 2 0 24 -14 48 -30z m-1656 -113 c-20 -18 -67 -54 -105 -81 -38 -28 -118
-86 -179 -131 -255 -188 -324 -235 -344 -235 -11 0 -21 3 -21 8 1 4 110 84
242 177 133 94 284 200 337 237 96 69 135 82 70 25z m2348 -433 c3 -9 -3 -25
-16 -37 l-21 -21 -21 21 c-29 28 -19 53 21 53 19 0 33 -6 37 -16z m-253 -113
c13 -14 14 -24 6 -45 -5 -15 -10 -46 -10 -69 0 -55 -18 -117 -33 -117 -9 0
-10 30 -6 122 4 68 7 124 8 126 4 7 20 0 35 -17z m454 -53 c-3 -7 -20 -58 -38
-112 l-33 -100 22 -14 c35 -24 22 -70 -33 -113 l-28 -22 7 44 c38 247 63 329
98 329 5 0 7 -6 5 -12z m-2750 -210 c22 -24 22 -25 4 -41 -17 -16 -23 -11
-118 94 -54 60 -101 115 -103 121 -4 13 183 -138 217 -174z m-104 -127 c265
-344 428 -566 478 -651 154 -262 335 -510 466 -637 79 -78 82 -83 56 -83 -24
1 -42 16 -98 81 -144 166 -410 524 -705 947 -188 270 -411 605 -411 617 0 4
28 -29 63 -75 34 -45 102 -134 151 -199z m2546 210 c0 -20 -9 -65 -19 -101
l-19 -65 -1 119 c-1 118 -1 119 19 101 13 -12 20 -31 20 -54z m1588 5 c3 -12
-15 -36 -48 -67 -83 -78 -94 -64 -25 31 45 60 67 71 73 36z m352 -32 c0 -13
-184 -245 -221 -279 -39 -35 -106 -71 -115 -62 -2 2 7 33 20 70 22 56 23 66
10 71 -53 20 -97 -15 -186 -149 -26 -38 -62 -80 -80 -92 -39 -26 -155 -66
-168 -58 -31 19 59 123 124 145 19 6 46 30 68 59 20 26 78 79 130 118 51 38
100 78 108 88 8 10 37 36 63 57 l49 38 99 0 c54 0 99 -3 99 -6z m-1378 -195
c-51 -127 -75 -156 -88 -104 -15 62 1 105 67 171 35 35 64 62 66 60 2 -2 -18
-59 -45 -127z m1905 86 l62 -27 7 -55 c4 -32 1 -93 -6 -143 -12 -87 -10 -177
5 -214 7 -16 5 -17 -23 -11 -17 3 -41 4 -52 0 -27 -9 -57 -68 -76 -152 -47
-208 -98 -287 -200 -306 -21 -4 -41 0 -63 14 -32 19 -36 20 -161 4 -132 -16
-147 -14 -192 17 -14 10 -35 18 -47 18 -11 0 -81 20 -155 45 -75 25 -154 45
-176 45 -23 0 -54 7 -69 15 -32 16 -86 7 -86 -15 0 -24 222 -102 410 -144 185
-42 415 -62 535 -47 71 9 101 19 185 62 123 64 168 98 201 155 51 87 56 122
55 352 -2 258 11 322 64 322 32 0 67 -57 106 -170 29 -84 40 -102 91 -153 55
-54 58 -60 58 -106 0 -41 -12 -72 -69 -185 -71 -140 -89 -203 -72 -249 9 -22
17 -27 44 -27 19 0 37 -3 40 -6 11 -12 -13 -44 -65 -85 -37 -29 -59 -39 -79
-37 -34 3 -89 -47 -205 -184 -83 -100 -121 -160 -144 -232 -26 -78 -49 -87
-180 -75 -58 5 -186 21 -285 35 -298 41 -513 44 -350 5 119 -29 284 -101 292
-128 5 -13 -84 -41 -172 -54 -33 -5 -125 -9 -205 -9 -134 0 -257 -9 -356 -25
-35 -5 -34 -4 14 13 82 30 83 38 3 46 -80 8 -122 4 -265 -26 -84 -17 -108 -27
-149 -59 -26 -21 -65 -44 -87 -50 -37 -11 -40 -10 -106 37 -88 62 -169 142
-177 175 -4 14 -24 44 -46 67 -50 53 -67 110 -76 257 -7 122 -14 142 -51 151
-41 10 -45 -4 -34 -107 6 -52 14 -160 18 -241 9 -165 14 -179 62 -161 31 12
42 1 14 -15 -21 -11 -11 -48 17 -62 11 -6 42 -31 69 -55 47 -42 99 -65 147
-65 14 0 30 -11 40 -27 23 -36 33 -43 58 -38 11 2 45 7 75 10 l55 6 -30 -31
-30 -31 95 1 c52 1 116 -1 142 -5 44 -7 49 -5 83 29 51 52 113 46 73 -6 -15
-20 -94 -40 -236 -63 -119 -18 -200 -46 -229 -78 -11 -12 -39 -56 -61 -98 -43
-79 -73 -114 -92 -107 -7 2 -4 13 9 29 11 15 20 40 20 60 -1 19 2 57 6 86 7
48 4 57 -39 140 -59 110 -109 173 -127 156 -9 -9 -9 -32 0 -100 7 -57 8 -100
2 -121 -8 -27 -7 -34 9 -42 10 -6 27 -10 37 -10 43 -1 45 -15 11 -71 -35 -58
-57 -120 -82 -233 -20 -85 -38 -116 -71 -116 -48 0 -97 76 -134 209 -108 388
-128 487 -140 705 -9 157 -2 291 24 436 24 136 36 298 27 378 -6 49 -5 72 2
72 25 0 116 -62 143 -97 17 -21 46 -70 66 -109 58 -116 110 -164 176 -164 40
0 50 20 20 39 -13 9 -39 30 -58 47 -30 27 -35 38 -36 81 -1 41 -8 59 -38 100
-20 28 -55 67 -78 88 -22 20 -39 38 -37 40 2 2 19 -4 38 -13 53 -25 117 -95
231 -248 57 -77 124 -161 150 -189 32 -33 50 -62 54 -88 8 -42 36 -67 77 -67
29 0 30 3 42 80 20 125 23 130 53 83 9 -16 44 -56 77 -91 l60 -62 -22 -16
c-51 -36 -9 -83 133 -149 133 -62 237 -97 276 -93 28 2 35 8 43 35 6 22 5 37
-2 46 -6 7 -70 46 -142 87 -181 104 -265 170 -321 254 -42 63 -55 74 -145 125
-134 75 -155 93 -224 182 -98 127 -154 167 -246 176 -30 3 -54 8 -54 11 0 16
37 42 61 42 23 0 178 -53 309 -105 140 -56 173 -66 207 -63 30 2 39 8 41 25 3
17 -6 24 -50 39 -79 26 -152 60 -167 78 -25 30 -3 39 88 33 70 -5 117 -17 259
-66 96 -34 180 -61 188 -61 18 0 18 24 -1 61 -15 29 -15 30 12 40 41 16 115 5
229 -34 93 -31 103 -33 129 -20 38 20 212 36 331 30 117 -5 162 -24 228 -93
35 -36 49 -44 78 -44 56 0 68 8 68 45 0 40 -57 118 -97 132 -15 6 -50 16 -78
22 -27 7 -57 20 -65 31 -13 16 -38 20 -175 30 -187 12 -327 29 -338 40 -5 4 8
11 29 15 59 11 174 60 260 110 81 48 129 85 344 264 l124 104 86 -6 c62 -3
101 -12 147 -32z m-1514 -91 c-15 -12 -30 -21 -31 -19 -4 4 35 112 46 129 4 6
8 -11 10 -38 3 -44 0 -52 -25 -72z m2093 44 c29 -57 11 -76 -31 -33 -18 17
-25 35 -25 61 0 37 0 37 21 18 12 -10 27 -31 35 -46z m-2309 -52 c-6 -63 -31
-116 -53 -116 -13 0 -15 7 -10 38 11 64 44 132 64 132 3 0 2 -24 -1 -54z
m-744 -103 c-5 -15 -15 -29 -21 -31 -9 -3 -12 18 -12 70 l0 73 21 -42 c16 -32
19 -49 12 -70z m-2253 15 c102 -120 203 -273 410 -618 101 -168 200 -330 220
-360 79 -119 60 -107 -42 27 -95 123 -224 318 -363 543 -59 96 -147 233 -194
304 -124 187 -124 186 -112 186 6 0 42 -37 81 -82z m1456 14 c-14 -14 -16 -14
-16 -1 0 20 23 44 29 28 2 -6 -4 -18 -13 -27z m983 -6 c9 -10 7 -30 -4 -82
-23 -99 -25 -104 -42 -104 -13 0 -14 14 -12 83 5 100 27 140 58 103z m156
-167 c-14 -84 -27 -154 -28 -155 -1 -1 -14 0 -29 3 -17 3 -28 12 -28 22 0 38
72 267 87 278 9 7 18 11 20 9 2 -2 -8 -73 -22 -157z m2744 -3 c19 -104 13
-224 -14 -281 l-23 -50 -1 110 c-1 143 10 311 20 293 4 -7 12 -40 18 -72z
m-3166 -124 c65 -86 97 -182 64 -195 -7 -3 -41 20 -75 52 -49 44 -60 59 -52
71 5 8 10 39 10 68 0 28 4 52 8 52 4 0 24 -22 45 -48z m2610 -131 c-34 -45
-44 -36 -23 23 27 80 34 88 38 42 2 -27 -3 -47 -15 -65z m-3056 -28 c23 -15
31 -47 15 -57 -5 -3 -30 0 -57 7 -55 14 -76 37 -55 62 15 18 59 13 97 -12z
m-197 -103 c89 -28 217 -32 331 -11 71 12 78 12 116 -7 45 -24 113 -118 139
-196 19 -56 15 -129 -11 -193 -15 -38 -21 -43 -49 -43 -17 0 -67 -7 -111 -15
-75 -15 -86 -14 -188 5 -116 22 -203 52 -227 77 -13 14 -13 15 5 9 10 -4 54
-10 97 -13 67 -5 78 -4 78 10 0 28 -44 65 -90 76 -95 22 -210 88 -210 121 0
14 14 13 99 -10 89 -24 131 -25 157 -5 19 15 19 15 0 29 -10 8 -62 29 -115 47
-117 38 -192 72 -216 99 -15 17 -16 22 -4 36 18 21 96 15 199 -16z m3714 -552
c-30 -60 -99 -136 -184 -202 -94 -74 -75 -29 34 83 52 53 109 113 127 134 45
52 54 46 23 -15z m-3406 -44 c23 -5 32 -12 32 -26 0 -19 -5 -19 -98 -13 -134
10 -168 -9 -123 -67 17 -21 20 -48 26 -194 4 -107 3 -163 -3 -154 -5 8 -31 77
-57 153 -32 94 -48 161 -52 212 l-6 75 34 15 c33 15 158 15 247 -1z m186 10
c9 -3 16 -14 16 -24 0 -13 -8 -16 -37 -15 -44 3 -59 31 -21 38 13 2 24 5 25 6
1 0 8 -2 17 -5z m-975 -98 c107 -87 294 -209 419 -274 l103 -54 40 -80 c22
-44 38 -83 34 -86 -13 -14 -277 132 -400 222 -71 52 -181 131 -242 176 -62 45
-113 84 -113 88 0 9 62 72 72 72 4 0 43 -29 87 -64z m2206 -357 c-107 -21
-128 -23 -101 -7 21 12 103 25 156 26 20 0 -5 -8 -55 -19z m-1135 -280 c0 -11
-5 -30 -11 -41 -11 -21 -12 -21 -25 -3 -8 10 -14 29 -14 42 0 18 6 23 25 23
19 0 25 -5 25 -21z m859 -185 l-75 -75 -55 3 -54 3 105 72 c58 39 116 72 130
72 22 1 15 -8 -51 -75z"/>
<path d="M5472 7088 c-27 -30 -36 -69 -20 -90 14 -18 168 -37 168 -21 0 16
-80 118 -98 125 -26 10 -27 10 -50 -14z"/>
<path d="M5709 6158 c-8 -7 -32 -39 -53 -71 -22 -32 -69 -85 -105 -118 -64
-58 -65 -60 -24 -40 108 53 174 118 201 200 7 19 12 36 12 37 0 8 -17 3 -31
-8z"/>
<path d="M6287 5633 c-12 -3 -16 -10 -12 -21 4 -10 7 -21 8 -26 1 -4 -29 -21
-68 -38 -38 -16 -90 -37 -115 -48 -25 -10 -79 -33 -120 -50 -41 -17 -95 -40
-120 -50 -25 -10 -76 -32 -115 -48 -232 -96 -244 -102 -209 -116 53 -20 161 4
336 75 185 75 181 74 358 130 272 85 305 97 308 112 4 21 -15 32 -106 61 -81
25 -107 29 -145 19z"/>
<path d="M6619 5392 c-23 -10 -6 -52 19 -52 30 0 46 -24 27 -40 -8 -7 -15 -21
-15 -31 0 -16 8 -19 48 -19 91 0 134 48 68 75 -24 10 -36 22 -36 35 0 32 -67
50 -111 32z"/>
<path d="M6456 5265 c-13 -20 -25 -25 -61 -25 -54 0 -149 -30 -230 -73 -58
-31 -81 -65 -40 -59 11 1 76 7 145 11 143 11 197 27 251 76 22 19 45 35 53 35
7 0 19 6 25 14 18 22 -24 46 -80 46 -39 0 -49 -4 -63 -25z"/>
<path d="M6690 5146 c-114 -27 -208 -50 -285 -70 -74 -20 -80 -24 -83 -49 -4
-34 -31 -47 -154 -75 -47 -11 -101 -27 -120 -36 -34 -16 -92 -65 -86 -72 2 -2
28 3 58 11 95 25 144 15 152 -31 3 -19 30 -3 221 122 l218 144 44 -12 c43 -12
46 -11 76 17 17 17 35 38 40 48 12 21 -1 21 -81 3z"/>
<path d="M3491 5580 c-25 -17 -54 -47 -66 -68 -11 -20 -36 -46 -55 -57 -58
-35 -120 -100 -120 -128 0 -13 7 -27 15 -31 22 -8 156 85 200 138 21 25 43 46
50 46 7 0 24 9 39 21 33 26 37 83 7 99 -25 13 -19 15 -70 -20z"/>
<path d="M2952 5182 c-44 -35 -90 -63 -117 -70 l-45 -12 0 -50 c0 -36 4 -52
15 -56 9 -4 53 24 116 75 55 45 107 85 115 88 29 11 26 83 -5 83 -3 0 -39 -26
-79 -58z"/>
<path d="M3362 5217 c-22 -23 -31 -77 -12 -77 21 0 60 24 65 41 6 19 -10 59
-24 59 -4 0 -17 -10 -29 -23z"/>
<path d="M3049 5023 c-20 -21 -43 -50 -52 -65 -10 -16 -23 -28 -30 -28 -7 0
-26 -13 -42 -30 -16 -16 -33 -30 -38 -30 -17 0 -67 -41 -67 -55 0 -8 5 -26 10
-40 9 -23 13 -25 26 -14 20 17 50 34 92 54 18 9 46 30 62 48 15 18 55 60 89
95 52 54 59 66 51 83 -18 32 -61 24 -101 -18z"/>
<path d="M2638 4958 c-9 -7 -18 -24 -20 -38 -2 -18 -13 -28 -45 -40 -64 -23
-113 -106 -82 -137 23 -23 259 161 259 201 0 27 -82 37 -112 14z"/>
<path d="M3157 4896 c-9 -13 -32 -29 -52 -36 -19 -6 -40 -20 -45 -30 -15 -27
-12 -66 5 -80 12 -10 21 -8 48 14 17 14 53 41 80 58 50 35 58 55 29 81 -26 24
-47 21 -65 -7z"/>
<path d="M3210 4747 c-26 -23 -53 -51 -60 -62 -8 -11 -40 -37 -70 -57 -99 -66
-116 -92 -86 -133 12 -17 14 -17 37 -2 13 10 34 17 46 17 18 0 29 13 52 58 26
51 37 62 91 90 86 44 119 89 88 120 -22 22 -52 12 -98 -31z"/>
<path d="M2682 4730 c-30 -14 -46 -28 -53 -50 -6 -17 -19 -35 -30 -40 -15 -9
-17 -14 -7 -35 10 -23 12 -24 42 -8 43 22 146 112 146 128 0 13 -22 26 -43 24
-7 0 -31 -9 -55 -19z"/>
<path d="M2865 4678 c-15 -18 -32 -43 -38 -55 -6 -14 -28 -28 -57 -38 -36 -12
-50 -23 -63 -51 -30 -62 -14 -135 20 -88 29 41 85 93 116 107 18 9 51 36 75
62 l43 45 -25 25 c-32 32 -39 32 -71 -7z"/>
<path d="M3333 4603 c-18 -9 -33 -20 -33 -24 0 -5 -13 -24 -30 -42 -20 -23
-30 -45 -30 -66 0 -37 9 -39 47 -8 15 13 50 38 76 56 57 39 66 55 42 81 -21
24 -30 24 -72 3z"/>
<path d="M3405 4452 c-23 -20 -54 -46 -69 -57 l-29 -20 23 -45 23 -45 16 25
c9 14 42 49 73 79 58 54 71 84 42 95 -27 11 -38 6 -79 -32z"/>
<path d="M2895 4462 c-49 -31 -135 -117 -135 -135 0 -10 6 -20 14 -23 35 -13
201 118 194 154 -5 24 -38 26 -73 4z"/>
<path d="M3078 4400 c-9 -6 -33 -39 -54 -75 -29 -49 -46 -68 -74 -79 -60 -24
-78 -65 -39 -89 13 -8 30 2 81 45 35 30 90 74 121 97 62 45 68 60 37 91 -22
22 -46 25 -72 10z"/>
<path d="M3483 4276 c-52 -26 -64 -37 -73 -66 -5 -19 -10 -41 -10 -47 0 -38
132 14 169 66 25 35 25 36 4 61 -20 24 -12 25 -90 -14z"/>
<path d="M3240 4270 c-54 -15 -108 -51 -127 -83 -12 -20 -44 -47 -76 -65 -55
-31 -95 -81 -82 -102 10 -17 68 -11 101 9 18 11 40 32 49 48 9 15 52 53 95 83
43 30 81 64 84 75 7 27 -13 44 -44 35z"/>
<path d="M3610 4159 c-14 -6 -45 -30 -70 -53 -25 -24 -73 -63 -108 -86 -65
-44 -82 -64 -82 -100 0 -56 89 -24 185 69 39 37 85 77 103 90 42 29 57 57 41
77 -13 16 -33 17 -69 3z"/>
<path d="M3251 4100 c-12 -28 -36 -53 -77 -81 -88 -61 -114 -89 -114 -121 0
-36 24 -37 73 -4 19 13 44 27 55 30 24 8 119 109 135 143 8 19 6 28 -13 48
-13 14 -27 25 -32 25 -5 0 -17 -18 -27 -40z"/>
<path d="M3650 3973 c-54 -45 -79 -95 -66 -130 8 -20 20 -16 69 27 25 22 54
40 65 40 23 0 52 35 52 62 0 17 -36 49 -55 47 -5 0 -35 -21 -65 -46z"/>
<path d="M3207 3843 c-37 -20 -75 -46 -84 -59 -21 -33 -10 -70 23 -78 21 -6
36 1 77 36 29 24 69 52 90 62 38 20 46 36 25 53 -31 24 -64 21 -131 -14z"/>
<path d="M3371 3718 c-41 -38 -83 -81 -93 -96 -18 -27 -25 -82 -10 -82 22 0
124 71 179 124 75 73 85 111 32 118 -28 4 -41 -3 -108 -64z"/>
<path d="M2428 6899 c-18 -25 -40 -41 -65 -49 -24 -7 -200 -13 -488 -16 -497
-5 -595 -10 -595 -27 0 -7 146 -158 326 -337 179 -179 351 -356 382 -394 53
-64 57 -73 57 -119 0 -28 5 -52 10 -54 10 -3 125 268 125 295 0 22 -19 13 -35
-18 -21 -40 -58 -64 -86 -55 -31 10 -199 174 -198 194 0 9 33 95 72 191 l72
175 137 0 c114 0 140 -3 154 -16 18 -19 22 -50 11 -91 -5 -20 -4 -28 6 -28 12
0 43 71 142 322 28 69 13 84 -27 27z m-488 -217 c0 -9 -117 -300 -127 -316 -3
-4 -77 63 -164 150 l-159 159 132 5 c231 10 318 10 318 2z"/>
<path d="M8100 6773 c0 -5 21 -74 47 -155 49 -155 76 -194 66 -95 -6 60 10 83
62 88 41 5 229 -11 241 -19 10 -8 124 -351 124 -375 0 -17 -146 -149 -190
-172 -37 -19 -70 -6 -96 40 -11 19 -24 31 -30 27 -10 -6 46 -198 102 -350 20
-53 34 -46 34 17 0 80 -4 76 410 431 354 303 410 354 410 366 0 15 -31 20
-200 34 -74 6 -227 20 -340 30 -113 11 -241 22 -285 25 -117 9 -226 25 -261
40 -18 7 -40 27 -50 44 -17 28 -44 42 -44 24z m738 -209 c105 -10 192 -21 192
-25 0 -6 -275 -244 -320 -277 -16 -12 -22 0 -69 146 -28 87 -51 163 -51 169 0
5 12 8 28 7 15 -2 114 -11 220 -20z"/>
<path d="M9333 6483 c-13 -2 -23 -9 -23 -14 0 -5 1 -9 3 -9 2 0 74 -29 160
-64 86 -36 157 -61 157 -57 0 4 -11 38 -23 77 l-24 69 -114 1 c-63 1 -124 0
-136 -3z"/>
<path d="M9152 5665 c-99 -31 -158 -100 -288 -338 -71 -130 -103 -171 -155
-197 -69 -36 -134 -23 -192 37 -34 36 -47 80 -47 159 0 88 24 149 84 210 49
50 86 68 179 88 27 6 34 32 9 30 -7 -1 -86 -2 -177 -2 -162 -2 -198 -10 -140
-32 14 -5 28 -17 32 -27 4 -10 -5 -65 -20 -123 -17 -65 -27 -131 -27 -173 0
-128 59 -236 159 -290 43 -24 63 -28 126 -29 146 0 207 55 340 307 128 244
201 304 302 251 97 -50 126 -164 72 -286 -38 -86 -104 -136 -211 -161 -33 -8
-58 -19 -58 -26 0 -10 34 -13 143 -13 78 0 159 3 180 6 42 7 49 29 12 38 -37
9 -39 42 -9 126 37 101 39 211 5 287 -31 71 -104 137 -172 157 -63 19 -90 19
-147 1z"/>
<path d="M2075 3483 c5 -10 10 -32 12 -49 6 -40 -3 -46 -239 -188 -242 -144
-253 -149 -280 -135 -12 7 -30 21 -40 33 -41 49 -11 -8 107 -202 68 -114 128
-213 133 -220 7 -10 28 -8 103 10 l94 22 -73 6 c-50 4 -81 13 -100 27 -35 26
-132 180 -132 210 0 28 25 47 230 169 186 110 231 134 257 134 9 0 32 -14 50
-32 18 -17 35 -30 37 -27 6 6 -147 258 -158 259 -4 0 -5 -8 -1 -17z"/>
<path d="M8290 3383 c0 -5 6 -15 12 -21 10 -10 1 -24 -49 -70 -34 -31 -70 -73
-79 -92 -25 -49 -24 -136 1 -179 34 -59 68 -76 144 -76 64 0 75 4 198 68 137
70 172 78 222 52 86 -44 53 -193 -54 -245 -38 -18 -58 -22 -103 -17 -32 3 -65
8 -74 12 -10 4 -18 3 -18 -1 0 -5 42 -35 94 -66 90 -56 123 -71 98 -46 -22 22
-12 44 49 101 78 74 114 148 106 218 -8 65 -30 104 -77 135 -35 23 -47 26
-107 22 -61 -4 -80 -11 -183 -67 -153 -85 -223 -93 -255 -31 -30 57 -13 113
49 167 51 45 127 52 209 18 9 -4 17 -3 17 1 0 9 -151 107 -183 120 -9 3 -17 2
-17 -3z"/>
<path d="M2340 3025 c0 -3 9 -19 21 -34 14 -19 19 -36 14 -50 -3 -11 -78 -86
-165 -166 -87 -80 -169 -160 -182 -177 -29 -41 -37 -147 -16 -198 20 -48 113
-147 159 -171 63 -31 118 -35 174 -10 55 24 91 52 258 203 138 124 157 131
201 73 51 -66 57 -103 50 -282 l-7 -163 -41 -10 c-23 -6 -72 -19 -111 -30
-133 -36 -202 -45 -252 -32 -25 7 -48 11 -50 9 -4 -5 93 -83 155 -126 36 -25
40 -22 16 14 -27 41 -7 58 108 89 57 16 118 32 136 36 l34 8 -7 -131 c-4 -73
-12 -138 -18 -145 -8 -10 -23 -12 -52 -7 -47 7 -51 12 86 -93 100 -77 147 -98
97 -45 -28 30 -33 101 -21 308 l8 140 140 38 c138 37 207 43 258 22 40 -17 10
14 -75 78 -86 63 -122 80 -85 39 19 -20 23 -57 7 -67 -12 -7 -216 -65 -230
-65 -13 0 -2 206 12 234 8 15 17 17 51 12 50 -8 51 -10 -74 86 -53 40 -113 93
-134 118 -71 85 -133 149 -138 143 -3 -3 3 -18 15 -33 14 -20 19 -36 14 -53
-7 -29 -302 -298 -352 -322 -36 -17 -101 -20 -138 -5 -34 12 -104 77 -122 111
-24 47 -18 110 15 160 30 44 259 258 326 303 39 27 56 25 94 -8 47 -41 15 4
-73 103 -79 90 -106 114 -106 96z"/>
<path d="M7870 2795 c0 -2 71 -146 157 -319 151 -304 156 -316 146 -350 -6
-20 -7 -36 -3 -36 11 0 130 140 130 152 0 13 -10 10 -37 -12 -23 -18 -29 -19
-47 -7 -11 8 -37 45 -57 83 l-36 70 83 99 c57 69 89 99 101 97 10 -2 48 -12
85 -23 75 -22 97 -44 78 -80 -6 -11 -10 -25 -8 -30 3 -9 112 113 157 174 18
25 6 34 -17 14 -11 -10 -35 -17 -58 -17 -23 0 -175 42 -345 95 -290 90 -329
101 -329 90z m335 -190 c22 -7 39 -18 37 -25 -3 -15 -125 -160 -134 -160 -8 0
-128 233 -128 249 0 5 42 -5 93 -21 50 -17 110 -36 132 -43z"/>
<path d="M7545 2443 c-93 -79 -186 -157 -205 -173 l-34 -28 43 -58 c25 -33 46
-61 48 -63 11 -14 10 11 -2 46 -11 31 -12 49 -4 71 11 32 103 117 118 108 20
-13 352 -417 361 -440 8 -21 5 -31 -17 -56 -47 -57 -16 -41 83 41 123 102 119
98 112 104 -3 3 -19 -2 -36 -12 -28 -16 -34 -17 -55 -3 -21 13 -203 223 -339
391 l-38 46 28 25 c81 74 134 88 186 47 15 -12 30 -19 33 -15 8 8 -86 116
-100 115 -7 0 -88 -66 -182 -146z"/>
<path d="M7120 2119 c-58 -38 -107 -74 -109 -80 -2 -7 4 -7 18 1 12 6 36 10
54 8 28 -3 40 -14 95 -98 151 -228 242 -374 242 -392 0 -10 -12 -30 -26 -45
-14 -14 -23 -27 -21 -29 4 -4 159 93 212 133 22 16 25 22 13 23 -9 0 -20 -4
-23 -10 -11 -18 -61 -11 -82 13 -18 20 -99 141 -241 363 -29 45 -52 92 -52
104 0 13 12 37 27 52 45 47 5 31 -107 -43z"/>
<path d="M6710 1887 c-59 -22 -279 -123 -289 -133 -11 -11 9 -13 34 -4 21 8
33 7 49 -4 30 -19 246 -481 246 -524 0 -25 -7 -36 -30 -51 -16 -10 -27 -20
-24 -23 8 -8 247 107 252 121 3 9 -2 9 -21 0 -55 -25 -74 -7 -133 117 -30 63
-54 116 -54 119 0 2 14 12 30 20 31 16 31 16 200 -79 l170 -96 80 37 c44 20
80 39 80 42 0 3 -33 6 -73 6 -71 0 -73 1 -202 74 -71 41 -132 76 -134 78 -3 2
9 18 26 36 43 46 55 73 55 128 0 128 -118 189 -262 136z m106 -62 c72 -55 78
-159 12 -222 -40 -38 -97 -68 -108 -56 -18 18 -110 237 -106 249 9 23 80 53
125 54 32 0 53 -7 77 -25z"/>
<path d="M3700 1886 c0 -2 16 -13 35 -25 19 -11 35 -28 35 -36 0 -34 -185
-512 -209 -539 -13 -14 -25 -17 -61 -12 -63 9 -42 -4 85 -54 61 -23 137 -53
170 -66 33 -12 90 -34 126 -47 l65 -25 53 65 c29 35 51 67 48 70 -3 3 -25 -9
-49 -26 -66 -48 -102 -49 -209 -11 -50 18 -100 41 -112 50 l-21 17 49 129 c27
71 50 131 52 133 2 2 45 -12 96 -33 102 -40 124 -62 114 -114 -9 -42 4 -48 21
-10 39 91 70 188 61 193 -5 4 -9 1 -9 -5 0 -20 -49 -60 -74 -60 -18 0 -170 51
-194 65 -3 3 85 236 93 243 13 13 231 -78 251 -106 7 -9 14 -39 14 -67 0 -60
10 -51 38 33 20 58 20 63 4 69 -9 3 -69 26 -132 50 -63 25 -144 55 -180 69
-36 14 -80 31 -98 39 -31 14 -62 20 -62 11z"/>
<path d="M6270 1714 c-47 -12 -130 -34 -185 -49 -55 -15 -128 -34 -162 -43
-72 -18 -82 -32 -22 -29 52 2 60 -9 89 -120 13 -49 43 -160 66 -248 24 -88 44
-174 44 -192 0 -35 -29 -63 -64 -63 -13 0 -17 -3 -10 -10 6 -6 32 -3 74 9 36
11 146 41 245 67 99 26 181 48 182 48 1 1 5 41 9 89 8 100 -4 114 -29 34 -28
-88 -57 -109 -200 -146 -98 -26 -111 -22 -122 32 -4 18 -18 71 -32 120 -14 48
-23 93 -20 101 3 7 47 24 97 36 102 25 131 20 152 -25 10 -23 28 -34 28 -17 1
20 -56 212 -62 212 -5 0 -8 -17 -8 -38 0 -25 -7 -45 -19 -56 -16 -14 -200 -71
-206 -64 -4 5 -65 236 -65 247 0 6 12 13 28 17 15 3 56 14 92 24 127 36 136
36 173 -1 19 -19 36 -41 39 -49 3 -8 8 -12 12 -9 4 4 -4 38 -16 76 l-23 69
-85 -22z"/>
<path d="M4240 1638 c-6 -24 -15 -58 -20 -75 -11 -43 3 -42 29 2 30 52 57 61
141 46 39 -7 70 -18 70 -24 0 -7 -23 -131 -52 -277 -44 -224 -55 -268 -75
-288 -18 -18 -30 -22 -53 -17 -17 4 -30 3 -30 -2 0 -8 242 -63 273 -63 21 0 3
19 -24 25 -57 13 -57 27 1 332 29 153 54 279 56 281 1 2 31 -2 66 -9 81 -16
128 -58 128 -114 0 -55 17 -33 24 32 4 32 9 65 12 73 4 17 3 17 -331 80 -88
17 -170 33 -182 35 -19 4 -24 -1 -33 -37z"/>
<path d="M5745 1593 c-22 -2 -56 -6 -75 -9 l-35 -6 43 -19 c32 -14 42 -24 42
-41 0 -25 -128 -448 -140 -461 -7 -8 -81 119 -190 329 -58 112 -59 134 -7 155
30 11 31 12 9 16 -13 3 -69 0 -123 -6 -55 -6 -106 -11 -114 -11 -8 0 -15 -4
-15 -10 0 -5 7 -10 15 -10 47 0 72 -30 165 -202 190 -350 236 -430 245 -430 5
0 53 141 106 313 54 172 106 324 117 338 10 14 28 30 40 36 12 5 22 13 22 17
0 8 -25 8 -105 1z"/>
</g>
</svg>
