<?xml version="1.0" standalone="no"?>
<!DOCTYPE svg PUBLIC "-//W3C//DTD SVG 20010904//EN"
 "http://www.w3.org/TR/2001/REC-SVG-20010904/DTD/svg10.dtd">
<svg version="1.0" xmlns="http://www.w3.org/2000/svg"
 width="200.000000pt" height="193.000000pt" viewBox="0 0 200.000000 193.000000"
 preserveAspectRatio="xMidYMid meet">

<g transform="translate(0.000000,193.000000) scale(0.100000,-0.100000)"
fill="#002855" stroke="none">
<path d="M865 1899 c-355 -51 -661 -311 -768 -655 -68 -215 -54 -463 36 -666
111 -249 336 -444 604 -524 119 -36 320 -44 444 -19 599 121 930 762 680 1319
-72 159 -236 341 -385 425 -186 106 -407 149 -611 120z m151 -154 c-8 -39 -8
-39 28 -25 24 9 26 7 26 -15 0 -28 0 -28 -35 -15 -25 10 -26 9 -19 -25 5 -31
4 -35 -15 -35 -24 0 -25 7 -11 45 10 28 7 28 -47 8 -9 -3 -13 4 -13 22 0 18 4
25 13 22 54 -20 57 -20 47 8 -14 38 -13 45 11 45 19 0 20 -4 15 -35z m-408
-130 c2 -11 16 -32 30 -47 20 -22 22 -28 9 -28 -9 0 -20 7 -25 16 -6 11 -16
14 -31 9 -17 -5 -19 -10 -10 -26 24 -45 0 -40 -29 6 -38 60 -39 69 -9 83 32
16 61 10 65 -13z m867 5 c18 -20 15 -50 -6 -50 -6 0 -9 6 -6 14 9 23 -18 39
-42 26 -34 -18 -42 -101 -8 -87 52 21 53 21 30 -3 -19 -21 -26 -22 -48 -12
-34 16 -34 60 1 101 30 36 54 39 79 11z m-1023 -83 c-17 -18 -19 -26 -10 -35
9 -9 16 -8 30 5 25 22 36 8 13 -17 -14 -16 -16 -23 -7 -32 9 -9 18 -6 36 11
14 13 26 18 30 13 6 -10 -38 -52 -53 -52 -4 0 -26 20 -50 44 l-42 43 28 21
c37 28 52 28 25 -1z m680 12 c29 -6 90 -29 136 -51 153 -72 269 -216 312 -383
86 -336 -120 -669 -457 -740 -178 -38 -370 10 -515 128 -68 56 -147 171 -178
258 -30 88 -38 248 -16 343 48 204 216 378 421 437 70 20 218 24 297 8z m476
-54 c-2 -11 -13 -24 -25 -30 -13 -5 -23 -15 -23 -21 0 -6 -9 -19 -20 -29 -17
-16 -20 -16 -20 -2 0 9 5 19 10 22 15 9 12 35 -5 42 -9 3 -25 -3 -35 -12 -40
-36 -19 1 27 47 l47 48 23 -22 c13 -13 23 -31 21 -43z m-1238 -43 c0 -4 -7
-17 -15 -29 -22 -31 1 -41 31 -12 28 26 34 7 8 -23 -16 -16 -15 -18 1 -24 12
-5 24 0 37 16 10 12 21 20 24 17 7 -7 -27 -67 -39 -67 -14 0 -97 60 -97 71 0
15 31 59 41 59 5 0 9 -3 9 -8z m1323 -43 c21 -38 13 -53 -12 -21 -11 15 -23
21 -34 17 -15 -6 -15 -9 0 -31 20 -32 7 -46 -16 -16 -11 15 -23 21 -34 17 -15
-6 -15 -10 -2 -35 21 -41 4 -45 -22 -5 l-22 33 52 35 c29 20 57 36 62 36 6 1
18 -13 28 -30z m-1325 -114 c39 -8 33 -27 -7 -19 -23 5 -29 2 -34 -15 -4 -16
0 -22 19 -27 13 -3 24 -10 24 -15 0 -13 -12 -11 -69 13 -48 19 -52 23 -46 47
9 39 34 54 59 37 12 -7 36 -17 54 -21z m1391 -28 c-90 -75 -150 -108 -105 -59
21 24 11 52 -20 52 -13 0 -24 4 -24 10 0 11 131 18 144 8 5 -4 8 -9 5 -11z
m-1508 -106 c-29 -22 -23 -48 14 -57 50 -12 76 23 38 52 -16 12 -16 13 -2 14
23 0 41 -25 37 -52 -4 -29 -47 -46 -85 -32 -54 19 -53 94 1 94 20 0 20 -1 -3
-19z m1543 -25 c6 -25 -1 -55 -13 -57 -3 -1 -22 -3 -41 -4 -19 -1 -45 -5 -57
-9 -14 -5 -23 -3 -23 3 0 6 11 13 25 17 38 9 34 44 -5 44 -16 0 -30 4 -30 9 0
11 33 17 96 20 36 1 43 -2 48 -23z m-1481 -352 c3 -3 1 -17 -4 -31 -12 -32 -8
-36 25 -23 21 8 28 7 32 -5 10 -25 -4 -35 -33 -24 -32 12 -36 8 -23 -25 8 -21
7 -28 -5 -32 -25 -10 -35 4 -24 33 12 32 8 36 -24 24 -29 -11 -43 -1 -33 24 4
12 11 13 32 5 33 -13 37 -9 25 23 -10 26 -6 37 14 37 6 0 14 -3 18 -6z m1406
-26 c-5 -18 -9 -34 -9 -35 0 -1 12 2 26 7 37 14 44 13 44 -11 0 -19 -4 -20
-35 -15 -39 8 -39 8 -25 -28 9 -24 7 -26 -15 -26 -28 0 -28 0 -15 35 10 25 9
26 -25 19 -31 -5 -35 -4 -35 15 0 24 7 25 45 11 28 -10 28 -7 8 48 -3 7 4 12
20 12 24 0 25 -2 16 -32z m-1182 -290 c31 -29 29 -44 -3 -23 -35 23 -56 5 -29
-25 24 -26 11 -39 -15 -15 -16 15 -22 16 -35 5 -14 -12 -13 -16 6 -36 12 -13
19 -27 16 -31 -7 -7 -57 35 -57 47 0 9 80 100 88 100 3 0 16 -10 29 -22z
m1001 -33 c25 -25 42 -48 39 -52 -4 -3 -16 2 -27 12 -21 19 -50 14 -50 -8 0
-8 7 -20 15 -27 9 -7 13 -15 10 -18 -3 -3 -28 16 -55 43 l-50 49 22 23 c30 32
44 29 96 -22z m-931 -47 c-4 -18 -9 -44 -13 -58 -7 -24 -7 -24 30 8 37 32 56
40 56 23 0 -15 -62 -111 -71 -111 -13 0 -11 13 7 39 16 22 16 23 -4 12 -12 -6
-24 -16 -27 -21 -14 -23 -26 -9 -20 23 l6 32 -19 -24 c-35 -43 -31 -7 5 52 40
64 59 73 50 25z m793 13 c0 -5 -10 -15 -22 -23 -14 -10 -19 -20 -15 -32 6 -16
8 -16 32 0 33 21 47 8 17 -15 -15 -11 -21 -23 -16 -34 8 -21 9 -21 38 -1 14 9
27 11 30 6 5 -9 -8 -20 -51 -46 -8 -4 -25 14 -48 49 -19 30 -35 59 -35 63 0 8
50 41 63 42 4 0 7 -4 7 -9z m-636 -71 c18 -7 26 -17 26 -34 0 -37 -25 -57 -55
-46 -22 8 -26 6 -31 -15 -3 -14 -12 -25 -19 -25 -10 0 -6 18 13 65 27 70 28
70 66 55z m543 -29 c13 -19 23 -41 23 -51 0 -25 -22 -49 -49 -52 -21 -3 -27 5
-48 57 -24 57 -24 60 -6 72 27 21 55 12 80 -26z m-128 -56 c6 -36 9 -70 6 -76
-4 -5 -20 7 -37 28 -16 21 -32 40 -35 43 -3 3 -2 -17 2 -44 11 -71 -10 -51
-24 25 -7 33 -9 64 -6 67 4 4 23 -11 42 -33 l35 -40 -7 48 c-11 72 10 57 24
-18z m-278 45 c20 -11 26 -45 9 -55 -5 -3 -10 -24 -10 -46 0 -21 -4 -39 -10
-39 -5 0 -10 13 -10 29 0 17 -6 31 -16 35 -23 9 -24 8 -24 -18 0 -24 -12 -41
-22 -31 -5 5 8 91 18 123 4 15 38 16 65 2z m144 -10 c4 -6 -7 -10 -24 -10 -24
0 -31 -4 -31 -20 0 -15 7 -20 25 -20 34 0 32 -18 -2 -22 -40 -4 -42 -34 -3
-41 37 -8 40 -27 3 -27 -49 0 -55 10 -47 83 l7 67 33 0 c18 0 36 -4 39 -10z"/>
<path d="M554 1605 c-3 -8 -3 -19 1 -25 9 -14 35 6 35 26 0 19 -29 18 -36 -1z"/>
<path d="M1114 1446 c-8 -22 -2 -27 16 -16 12 7 12 12 3 21 -10 10 -14 9 -19
-5z"/>
<path d="M1027 1443 c-12 -11 -8 -21 13 -26 17 -4 18 -2 9 14 -11 21 -13 22
-22 12z"/>
<path d="M1060 1442 c0 -4 6 -14 13 -21 17 -18 -18 -43 -50 -35 -23 6 -34 -11
-11 -18 17 -6 0 -28 -22 -28 -26 0 -36 21 -17 35 10 7 17 20 17 29 0 25 -29
19 -40 -8 -6 -18 -14 -23 -28 -19 -16 4 -19 11 -15 35 3 22 1 29 -9 25 -7 -2
-12 -14 -11 -26 2 -11 -2 -21 -7 -21 -6 0 -10 9 -10 19 0 21 -17 37 -28 27 -3
-4 -1 -16 6 -26 10 -16 9 -18 -3 -14 -10 4 -13 -2 -13 -25 1 -17 4 -31 8 -31
4 0 10 -10 13 -22 6 -21 7 -21 27 -3 11 10 20 24 20 31 0 22 18 25 40 7 11
-10 20 -21 20 -26 0 -5 -7 -4 -15 3 -9 7 -18 10 -22 6 -3 -3 -1 -6 6 -6 6 0
11 -8 9 -17 -2 -12 3 -17 16 -16 16 1 18 -4 12 -44 -3 -25 -6 -66 -6 -91 0
-61 -9 -49 -14 19 -3 30 -5 56 -5 58 -1 3 -8 -4 -17 -15 -14 -18 -15 -18 -9 6
6 24 5 24 -9 6 -16 -19 -16 -19 -16 3 0 13 -4 20 -11 16 -6 -4 -8 -9 -5 -12 3
-3 -2 -12 -11 -21 -14 -14 -14 -17 3 -29 24 -17 37 -17 30 2 -7 19 -1 19 18
-1 18 -17 22 -54 6 -54 -19 0 -91 75 -93 96 -1 15 -8 22 -24 22 -13 0 -23 -5
-23 -10 0 -5 -4 -6 -10 -3 -5 3 -10 2 -10 -3 0 -16 13 -21 30 -12 15 8 20 4
29 -20 9 -27 8 -30 -12 -29 -12 0 -16 3 -9 6 19 8 15 35 -5 31 -10 -2 -17 -10
-16 -16 3 -14 -13 -16 -21 -3 -4 5 0 12 6 15 7 3 3 3 -9 0 -26 -6 -30 8 -8 26
12 10 13 16 3 29 -12 14 -11 14 5 2 16 -13 19 -10 16 17 0 4 -14 8 -31 9 -26
3 -30 0 -25 -17 3 -11 1 -20 -4 -20 -5 0 -9 9 -9 20 0 11 -5 20 -11 20 -6 0
-8 -9 -4 -20 3 -11 8 -32 11 -47 7 -36 14 -45 29 -39 8 3 11 -2 8 -15 -6 -20
13 -27 19 -8 3 9 9 9 25 0 12 -6 35 -11 52 -11 22 0 42 -12 78 -47 l49 -48 -4
-97 c-3 -80 -6 -98 -19 -98 -13 0 -13 3 -3 15 9 11 10 19 3 26 -15 15 -43 0
-36 -18 4 -11 2 -14 -6 -9 -6 4 -9 16 -6 27 4 10 2 19 -2 19 -8 0 -43 62 -43
75 0 3 7 5 15 5 18 0 20 16 3 26 -6 4 -14 2 -16 -4 -2 -7 -8 -12 -14 -12 -6 0
-5 6 2 15 16 19 5 32 -13 16 -11 -9 -17 -8 -26 3 -10 12 -6 15 26 18 27 2 39
8 41 21 4 22 -24 23 -36 1 -6 -11 -17 -15 -31 -11 -11 3 -21 1 -21 -5 0 -5 -4
-6 -10 -3 -5 3 -10 19 -10 36 0 19 -5 29 -15 29 -8 0 -15 -9 -15 -20 0 -11 5
-20 10 -20 6 0 10 -5 10 -11 0 -8 -4 -8 -15 1 -8 6 -19 9 -25 5 -19 -11 -10
-25 16 -25 15 0 23 -4 18 -11 -4 -7 2 -9 16 -7 13 2 25 -2 27 -8 5 -16 -40
-11 -53 5 -12 16 -34 7 -34 -13 0 -21 71 -28 91 -10 21 19 33 3 15 -21 -11
-16 -17 -16 -46 -7 -55 20 -71 15 -51 -16 7 -12 12 -12 29 -1 12 7 25 10 29 6
4 -5 1 -12 -6 -16 -16 -10 -6 -31 15 -31 8 0 14 9 14 20 0 11 4 20 10 20 5 0
9 -10 7 -21 -2 -26 20 -37 29 -14 4 9 -1 24 -10 34 -11 12 -13 21 -7 25 15 9
31 -27 31 -68 0 -33 -3 -36 -28 -36 -43 0 -114 41 -135 78 -11 18 -20 54 -21
80 -1 41 -4 47 -23 50 -19 3 -23 -1 -23 -22 0 -14 5 -26 12 -26 6 0 8 -3 5 -7
-4 -3 1 -15 10 -26 17 -20 17 -20 0 -14 -10 4 -23 7 -28 7 -4 0 -6 7 -3 15 4
10 0 15 -11 15 -11 0 -15 -5 -11 -15 3 -8 0 -15 -7 -15 -7 0 -13 12 -13 26 -2
30 -9 38 -23 30 -7 -5 -7 -16 0 -34 l9 -27 -18 24 c-15 18 -21 21 -27 10 -5
-7 -4 -14 3 -17 7 -2 12 -8 12 -13 0 -14 -28 -11 -33 4 -4 9 -7 9 -18 -1 -11
-11 -10 -14 10 -19 16 -4 19 -8 10 -14 -8 -4 -10 -11 -6 -15 3 -4 15 -1 24 7
17 13 17 13 3 -5 -13 -16 -12 -20 5 -32 38 -28 50 -16 45 44 -1 12 4 22 10 22
6 0 10 -8 9 -17 -3 -37 1 -53 16 -53 17 0 20 16 6 25 -12 7 -10 45 2 45 5 0 7
-7 4 -15 -8 -18 13 -32 23 -15 5 8 18 -1 41 -30 38 -47 72 -68 138 -85 25 -6
46 -16 49 -23 2 -7 -2 -10 -12 -6 -9 3 -16 1 -16 -5 0 -6 -4 -11 -9 -11 -5 0
-8 6 -7 14 0 8 -3 15 -9 15 -5 0 -9 -7 -9 -15 2 -20 -13 -18 -25 4 -9 16 -11
15 -31 -6 -11 -12 -19 -26 -16 -31 7 -11 66 -12 66 0 0 5 5 9 10 9 6 0 10 -7
10 -15 0 -8 -4 -15 -10 -15 -5 0 -8 -10 -6 -22 3 -13 5 -29 5 -35 1 -7 6 -13
12 -13 5 0 9 8 8 18 -2 29 2 58 8 45 6 -17 23 -17 23 0 0 8 11 24 25 37 24 23
25 23 45 5 39 -35 23 -186 -25 -244 -19 -22 -22 -31 -12 -39 8 -7 20 -6 37 3
52 29 80 15 80 -41 0 -17 6 -24 20 -24 13 0 20 7 20 21 0 18 5 20 46 17 56 -4
66 11 24 35 -43 26 -57 60 -63 157 -6 94 0 113 43 135 28 14 30 14 54 -10 14
-14 25 -29 25 -33 -3 -20 3 -23 18 -11 11 10 14 10 9 2 -4 -8 -2 -13 5 -13 10
0 10 -3 1 -12 -16 -16 -15 -28 3 -28 8 0 15 6 16 13 0 6 2 22 5 35 2 12 -1 22
-6 22 -6 0 -10 7 -10 15 0 8 5 15 10 15 6 0 10 -7 10 -15 0 -8 5 -15 11 -15 8
0 8 -4 2 -12 -12 -17 -11 -48 2 -45 6 1 9 10 8 20 -4 25 14 21 21 -5 4 -18 8
-20 18 -10 9 9 8 15 -7 26 -21 15 -30 47 -10 40 22 -9 24 10 4 36 -16 21 -20
23 -28 10 -7 -10 -6 -17 2 -23 8 -6 6 -7 -6 -3 -10 3 -20 6 -23 6 -2 0 -1 7 2
15 4 9 0 15 -7 15 -19 1 32 29 52 30 9 0 26 -9 39 -20 13 -11 27 -20 31 -20
21 0 39 14 39 31 0 22 -37 34 -70 24 -21 -7 -20 -3 10 40 30 43 33 45 46 28
13 -17 16 -15 18 16 1 8 6 16 13 18 9 3 10 -4 2 -29 -11 -41 -12 -38 6 -38 8
0 15 4 15 8 0 4 10 8 23 9 12 0 16 -1 10 -4 -12 -4 -19 -33 -8 -33 14 0 75 46
75 57 0 6 -9 15 -20 18 -22 7 -26 20 -10 30 15 9 12 25 -5 25 -8 0 -15 -6 -15
-14 0 -20 -17 -29 -26 -15 -4 7 -3 9 3 6 6 -4 10 6 11 24 0 19 -4 29 -11 26
-7 -2 -11 -12 -11 -21 1 -9 -2 -16 -8 -16 -5 0 -6 -4 -3 -10 3 -5 1 -10 -4
-10 -6 0 -11 7 -11 15 0 23 -17 18 -23 -6 -5 -17 -11 -20 -29 -16 -21 6 -26 1
-37 -28 -14 -39 -75 -81 -126 -87 -28 -3 -30 0 -33 31 -4 38 16 94 30 85 5 -3
2 -16 -6 -30 -22 -32 -20 -44 5 -44 18 0 20 4 15 25 -4 14 -2 25 3 25 5 0 11
-10 13 -22 2 -13 10 -23 18 -23 22 0 24 32 3 39 -10 3 2 3 26 0 42 -4 43 -4
39 21 -3 14 -1 25 3 25 12 0 11 27 0 34 -5 4 -16 3 -25 0 -12 -5 -13 -10 -5
-26 13 -24 10 -27 -35 -35 -28 -4 -37 -2 -42 11 -8 21 31 57 53 49 11 -4 14
-2 9 5 -5 8 1 12 18 12 16 0 26 6 26 15 0 17 -16 20 -25 5 -3 -5 -11 -10 -17
-10 -6 0 -4 8 5 18 22 24 22 44 0 40 -10 -2 -18 -12 -19 -23 -2 -40 -4 -46
-14 -40 -5 3 -10 15 -10 25 0 24 -18 36 -33 20 -9 -9 -7 -15 7 -26 19 -14 19
-14 -1 -14 -11 0 -23 7 -27 15 -8 21 -38 19 -34 -2 3 -18 8 -20 62 -22 28 -1
29 -2 10 -15 -11 -8 -23 -11 -29 -6 -6 5 -21 0 -35 -11 -22 -17 -23 -21 -9
-32 14 -11 14 -16 -1 -52 -14 -32 -19 -37 -25 -22 -4 9 -4 33 -1 52 6 31 4 35
-14 35 -21 0 -28 -24 -10 -35 18 -11 11 -33 -9 -28 -10 3 -22 -1 -26 -7 -9
-14 13 -30 31 -23 6 2 15 0 19 -6 4 -7 -4 -11 -19 -11 -27 0 -34 -18 -15 -37
7 -7 5 -12 -9 -15 -16 -5 -21 1 -26 31 -3 20 -6 62 -6 93 0 54 2 59 46 102 25
25 58 49 72 52 15 3 42 12 60 19 18 8 32 10 32 5 0 -6 7 -10 16 -10 11 0 14 6
9 20 -5 15 -3 19 10 14 11 -5 18 0 22 16 4 15 8 18 13 10 4 -7 13 -9 19 -6 19
12 12 26 -14 26 -17 0 -25 -6 -25 -17 0 -15 -2 -15 -9 -4 -7 11 -14 9 -35 -13
-15 -14 -32 -26 -39 -26 -7 0 -2 8 9 18 16 13 20 22 14 37 -5 11 -9 16 -9 10
-1 -5 -5 -4 -10 4 -7 11 -13 12 -23 3 -11 -9 -17 -7 -28 8 -17 24 -50 27 -50
5 0 -9 11 -20 25 -25 35 -13 31 -27 -21 -77 -48 -46 -59 -48 -59 -7 0 13 -4
24 -10 24 -5 0 -8 -15 -7 -33 2 -24 0 -28 -7 -17 -14 20 -15 173 -1 165 6 -3
14 4 18 16 l9 23 5 -22 c4 -12 12 -22 18 -22 7 0 10 8 7 20 -6 22 12 27 31 8
8 -8 14 -5 22 16 14 39 13 44 -12 49 l-23 4 23 2 c12 0 22 5 22 11 0 5 -13 7
-30 5 -24 -3 -30 0 -30 16 0 10 -7 19 -15 19 -8 0 -15 -4 -15 -8z m27 -59
c-14 -4 -16 -8 -6 -19 9 -11 8 -14 -5 -14 -9 0 -16 6 -16 13 0 18 10 27 29 26
12 -1 12 -2 -2 -6z m-187 -14 c0 -5 -6 -8 -12 -6 -7 1 -12 -6 -12 -15 1 -10
-3 -18 -8 -18 -6 0 -8 9 -5 20 3 10 0 21 -7 23 -6 2 1 4 17 4 15 0 27 -3 27
-8z m220 -9 c0 -5 -5 -10 -11 -10 -5 0 -7 5 -4 10 3 6 8 10 11 10 2 0 4 -4 4
-10z m-70 -4 c0 -2 -7 -9 -15 -16 -13 -11 -14 -10 -9 4 5 14 24 23 24 12z
m-320 -113 c0 -5 -5 -15 -10 -23 -7 -12 -9 -10 -7 8 1 19 17 33 17 15z m485
-13 c3 -5 -3 -10 -15 -10 -17 0 -20 -4 -15 -20 4 -14 2 -20 -9 -20 -9 0 -13 6
-11 15 3 8 7 22 10 30 5 17 31 20 40 5z m-40 -180 c3 -5 1 -10 -4 -10 -6 0
-11 5 -11 10 0 6 2 10 4 10 3 0 8 -4 11 -10z m265 -44 c0 -17 -14 -29 -23 -20
-8 8 3 34 14 34 5 0 9 -6 9 -14z m-890 -6 c0 -5 -5 -10 -11 -10 -5 0 -7 5 -4
10 3 6 8 10 11 10 2 0 4 -4 4 -10z m950 -21 c0 -6 -4 -7 -10 -4 -5 3 -10 11
-10 16 0 6 5 7 10 4 6 -3 10 -11 10 -16z m-380 -74 c0 -8 -7 -15 -16 -15 -14
0 -14 3 -4 15 7 8 14 15 16 15 2 0 4 -7 4 -15z m-143 -132 c-2 -27 -3 -5 -3
47 0 52 1 74 3 48 2 -27 2 -69 0 -95z m221 72 c-2 -35 -11 -44 -23 -25 -3 6
-1 10 4 10 6 0 11 7 11 16 0 11 -6 14 -20 9 -27 -9 -25 3 3 15 12 5 23 9 25 9
1 1 2 -15 0 -34z"/>
<path d="M927 1421 c-3 -14 -1 -18 9 -14 8 3 14 11 14 19 0 21 -17 17 -23 -5z"/>
<path d="M1233 1310 c-28 -11 -28 -11 1 -45 15 -17 26 -23 30 -16 4 6 11 9 16
6 5 -3 11 -1 15 5 3 5 17 10 31 10 25 0 32 14 14 25 -6 4 -17 2 -25 -5 -11 -9
-12 -7 -8 9 3 12 1 21 -6 21 -6 0 -11 -12 -12 -27 -1 -28 -1 -28 -8 -4 -8 29
-18 33 -48 21z"/>
<path d="M650 1265 c0 -8 7 -15 15 -15 8 0 15 7 15 15 0 8 -7 15 -15 15 -8 0
-15 -7 -15 -15z"/>
<path d="M1090 1250 c0 -5 5 -10 10 -10 6 0 10 5 10 10 0 6 -4 10 -10 10 -5 0
-10 -4 -10 -10z"/>
<path d="M1060 1241 c0 -6 5 -13 10 -16 6 -3 10 1 10 9 0 9 -4 16 -10 16 -5 0
-10 -4 -10 -9z"/>
<path d="M666 1233 c-11 -11 -6 -23 9 -23 8 0 15 4 15 9 0 13 -16 22 -24 14z"/>
<path d="M1036 1232 c-3 -5 3 -17 13 -26 11 -10 22 -13 25 -8 3 5 -3 17 -13
26 -11 10 -22 13 -25 8z"/>
<path d="M1103 1230 c-13 -5 -20 -16 -19 -27 3 -17 8 -19 36 -14 17 2 11 19
-7 24 -17 4 -17 5 0 6 9 0 17 6 17 11 0 6 -1 10 -2 9 -2 0 -13 -4 -25 -9z"/>
<path d="M1295 1201 c-7 -12 12 -24 25 -16 11 7 4 25 -10 25 -5 0 -11 -4 -15
-9z"/>
<path d="M677 1194 c-8 -8 1 -24 14 -24 5 0 9 7 9 15 0 15 -12 20 -23 9z"/>
<path d="M774 1119 c-10 -17 13 -36 27 -22 12 12 4 33 -11 33 -5 0 -12 -5 -16
-11z"/>
<path d="M1226 1051 c-8 -12 21 -34 34 -26 17 11 11 35 -9 35 -11 0 -22 -4
-25 -9z"/>
<path d="M1507 1033 c-12 -11 -8 -23 8 -23 8 0 15 7 15 15 0 16 -12 20 -23 8z"/>
<path d="M884 978 c2 -39 5 -43 29 -46 19 -2 27 1 27 12 0 21 -18 30 -35 16
-11 -9 -12 -7 -8 10 3 11 9 23 14 26 16 9 10 24 -10 24 -16 0 -19 -7 -17 -42z"/>
<path d="M1286 801 c-4 -5 -2 -12 3 -15 5 -4 12 -2 15 3 4 5 2 12 -3 15 -5 4
-12 2 -15 -3z"/>
<path d="M710 780 c0 -5 13 -11 29 -15 22 -5 28 -10 24 -26 -3 -10 -1 -19 5
-19 17 0 21 39 5 51 -17 15 -63 21 -63 9z"/>
<path d="M717 754 c-8 -8 1 -24 14 -24 5 0 9 7 9 15 0 15 -12 20 -23 9z"/>
<path d="M1542 1518 c-13 -13 2 -38 24 -38 20 0 27 19 14 35 -15 18 -22 19
-38 3z"/>
<path d="M281 1291 c-15 -27 -14 -31 8 -31 24 0 34 25 16 40 -11 9 -16 7 -24
-9z"/>
<path d="M1685 1250 c4 -6 11 -8 16 -5 14 9 11 15 -7 15 -8 0 -12 -5 -9 -10z"/>
<path d="M1730 1126 c0 -19 23 -36 38 -27 7 4 10 15 6 24 -7 20 -44 23 -44 3z"/>
<path d="M1461 446 c-9 -10 -8 -16 4 -26 21 -17 51 6 34 26 -6 8 -15 14 -19
14 -4 0 -13 -6 -19 -14z"/>
<path d="M727 301 c-6 -24 0 -31 25 -31 23 0 25 35 2 44 -21 8 -21 8 -27 -13z"/>
<path d="M1243 314 c-17 -7 25 -104 42 -98 20 8 26 31 14 61 -14 37 -30 47
-56 37z"/>
<path d="M850 261 c0 -22 29 -36 43 -22 15 15 0 41 -23 41 -13 0 -20 -7 -20
-19z"/>
</g>
</svg>
